<svg width="16" height="16" viewBox="0 0 16 16" fill="none" xmlns="http://www.w3.org/2000/svg">
<path d="M8.97917 5.16667V10.8333L11.8125 8L8.97917 5.16667ZM0.5 1.75C0.5 1.40625 0.622431 1.11201 0.867292 0.867292C1.11201 0.622431 1.40625 0.5 1.75 0.5L14.25 0.5C14.5938 0.5 14.8881 0.622431 15.1329 0.867292C15.3776 1.11201 15.5 1.40625 15.5 1.75V14.25C15.5 14.5938 15.3776 14.8881 15.1329 15.1329C14.8881 15.3776 14.5938 15.5 14.25 15.5H1.75C1.40625 15.5 1.11201 15.3776 0.867292 15.1329C0.622431 14.8881 0.5 14.5938 0.5 14.25V1.75ZM4.8125 1.75L1.75 1.75V14.25H4.8125V1.75ZM6.0625 1.75V14.25H14.25V1.75L6.0625 1.75Z" fill="#01101A"/>
</svg>
