<svg width="38" height="30" viewBox="0 0 38 30" fill="none" xmlns="http://www.w3.org/2000/svg">
<path d="M16.1612 24.7509C15.2167 24.7509 14.4158 24.3999 13.7584 23.6979C13.101 22.9959 12.726 22.2016 12.6334 21.3149C11.5408 21.2225 10.6288 20.7653 9.89727 19.9433C9.16579 19.1212 8.80005 18.119 8.80005 16.9368C8.80005 16.5304 8.85097 16.1378 8.95283 15.7591C9.05468 15.3804 9.20746 15.0156 9.41116 14.6646C9.20746 14.3321 9.05468 13.9811 8.95283 13.6116C8.85097 13.2422 8.80005 12.845 8.80005 12.4201C8.80005 11.3117 9.18431 10.3604 9.95283 9.56604C10.7213 8.7717 11.6334 8.30988 12.6889 8.18057C12.726 7.23844 13.0825 6.43948 13.7584 5.78369C14.4343 5.1279 15.2445 4.8 16.1889 4.8C16.726 4.8 17.2028 4.89699 17.6195 5.09095C18.0362 5.28492 18.4297 5.56663 18.8 5.93609C19.1704 5.56663 19.5593 5.28492 19.9667 5.09095C20.3741 4.89699 20.8463 4.8 21.3834 4.8C22.3093 4.8 23.1056 5.1279 23.7723 5.78369C24.4389 6.43948 24.8 7.23844 24.8556 8.18057C25.9297 8.27293 26.8556 8.7209 27.6334 9.52448C28.4112 10.3281 28.8 11.2933 28.8 12.4201C28.8 12.845 28.7445 13.2468 28.6334 13.6255C28.5223 14.0042 28.3649 14.3598 28.1612 14.6923C28.3649 15.0618 28.5223 15.4497 28.6334 15.8561C28.7445 16.2625 28.8 16.6597 28.8 17.0476C28.8 18.2299 28.4343 19.2136 27.7028 19.9987C26.9713 20.7838 26.0593 21.2225 24.9667 21.3149C24.8741 22.2016 24.4945 22.9959 23.8278 23.6979C23.1612 24.3999 22.3649 24.7509 21.4389 24.7509C20.8834 24.7509 20.4019 24.6585 19.9945 24.4738C19.5871 24.289 19.1889 24.0119 18.8 23.6425C18.4112 24.0119 18.013 24.289 17.6056 24.4738C17.1982 24.6585 16.7167 24.7509 16.1612 24.7509ZM19.6334 8.12515V21.4257C19.6334 21.8875 19.8139 22.2801 20.175 22.6034C20.5362 22.9267 20.9667 23.0883 21.4667 23.0883C21.9482 23.0883 22.3649 22.8759 22.7167 22.451C23.0686 22.0261 23.263 21.592 23.3 21.1486C22.8741 21.0008 22.476 20.8023 22.1056 20.5529C21.7352 20.3035 21.4204 19.9941 21.1612 19.6246C21.013 19.4214 20.9575 19.2136 20.9945 19.0011C21.0315 18.7887 21.1519 18.6086 21.3556 18.4608C21.5593 18.313 21.7676 18.2576 21.9806 18.2945C22.1936 18.3315 22.3741 18.4516 22.5223 18.6548C22.763 18.9873 23.0593 19.2413 23.4112 19.4168C23.763 19.5923 24.1519 19.68 24.5778 19.68C25.2815 19.68 25.8834 19.4399 26.3834 18.9596C26.8834 18.4793 27.1334 17.842 27.1334 17.0476C27.1334 16.8814 27.1149 16.7105 27.0778 16.535C27.0408 16.3595 27.0038 16.1794 26.9667 15.9947C26.6334 16.2348 26.2676 16.4149 25.8695 16.535C25.4713 16.6551 25.0593 16.7151 24.6334 16.7151C24.3926 16.7151 24.1936 16.6366 24.0362 16.4796C23.8788 16.3225 23.8 16.124 23.8 15.8838C23.8 15.6437 23.8788 15.4451 24.0362 15.2881C24.1936 15.131 24.3926 15.0525 24.6334 15.0525C25.3371 15.0525 25.9297 14.7939 26.4112 14.2767C26.8926 13.7594 27.1334 13.1406 27.1334 12.4201C27.1334 11.7181 26.8741 11.1178 26.3556 10.619C25.8371 10.1202 25.2445 9.85237 24.5778 9.81543C24.3926 10.2588 24.1288 10.6513 23.7862 10.9931C23.4436 11.3348 23.05 11.5888 22.6056 11.7551C22.3834 11.8475 22.1704 11.8428 21.9667 11.7412C21.763 11.6396 21.6241 11.478 21.55 11.2563C21.476 11.0346 21.4852 10.8176 21.5778 10.6051C21.6704 10.3927 21.8278 10.2495 22.05 10.1757C22.3834 10.0648 22.6565 9.84314 22.8695 9.51062C23.0825 9.17811 23.1889 8.79941 23.1889 8.37453C23.1889 7.83881 23.013 7.38623 22.6612 7.01677C22.3093 6.6473 21.8926 6.46257 21.4112 6.46257C20.9297 6.46257 20.513 6.62421 20.1612 6.94749C19.8093 7.27077 19.6334 7.66332 19.6334 8.12515ZM17.9667 21.4257V8.12515C17.9667 7.66332 17.7954 7.27077 17.4528 6.94749C17.1102 6.62421 16.6889 6.46257 16.1889 6.46257C15.7075 6.46257 15.2862 6.6473 14.925 7.01677C14.5639 7.38623 14.3834 7.83881 14.3834 8.37453C14.3834 8.79941 14.4852 9.17349 14.6889 9.49677C14.8926 9.82005 15.1612 10.0371 15.4945 10.1479C15.7167 10.2218 15.8788 10.365 15.9806 10.5774C16.0825 10.7899 16.0963 10.9977 16.0223 11.2009C15.9297 11.4226 15.7769 11.5888 15.5639 11.6997C15.351 11.8105 15.1334 11.8197 14.9112 11.7274C14.4667 11.5796 14.0778 11.3348 13.7445 10.9931C13.4112 10.6513 13.1519 10.2588 12.9667 9.81543C12.3186 9.87085 11.7399 10.1433 11.2306 10.6329C10.7213 11.1224 10.4667 11.7181 10.4667 12.4201C10.4667 13.1406 10.7075 13.7594 11.1889 14.2767C11.6704 14.7939 12.263 15.0525 12.9667 15.0525C13.2075 15.0525 13.4065 15.131 13.5639 15.2881C13.7213 15.4451 13.8 15.6437 13.8 15.8838C13.8 16.124 13.7213 16.3225 13.5639 16.4796C13.4065 16.6366 13.2075 16.7151 12.9667 16.7151C12.5408 16.7151 12.1288 16.6504 11.7306 16.5211C11.3325 16.3918 10.9667 16.2163 10.6334 15.9947C10.5778 16.1424 10.5362 16.2995 10.5084 16.4657C10.4806 16.632 10.4667 16.7982 10.4667 16.9645C10.4667 17.7588 10.7121 18.41 11.2028 18.918C11.6936 19.426 12.2908 19.68 12.9945 19.68C13.4019 19.68 13.7862 19.5877 14.1473 19.4029C14.5084 19.2182 14.8093 18.9688 15.05 18.6548C15.1982 18.47 15.3834 18.3546 15.6056 18.3084C15.8278 18.2622 16.0315 18.313 16.2167 18.4608C16.4019 18.6086 16.5176 18.7933 16.5639 19.015C16.6102 19.2367 16.5593 19.4399 16.4112 19.6246C16.1519 19.9941 15.8417 20.3035 15.4806 20.5529C15.1195 20.8023 14.726 21.0008 14.3 21.1486C14.3371 21.592 14.5315 22.0261 14.8834 22.451C15.2352 22.8759 15.6612 23.0883 16.1612 23.0883C16.6612 23.0883 17.0871 22.9267 17.4389 22.6034C17.7908 22.2801 17.9667 21.8875 17.9667 21.4257Z" fill="#01101A"/>
<path d="M26.177 29.6C25.8543 29.6 25.5955 29.4923 25.4005 29.277C25.2052 29.0617 25.1075 28.792 25.1075 28.468C25.1075 28.177 25.2143 27.9282 25.428 27.7215C25.6413 27.5148 25.891 27.4115 26.177 27.4115H27.826C28.8503 27.4115 29.7123 27.0892 30.412 26.4445C31.1117 25.8002 31.4615 24.9712 31.4615 23.9575V19.7155C31.4615 18.5458 31.8212 17.4977 32.5405 16.571C33.2595 15.6443 34.2178 15.0322 35.4155 14.7345V14.6155C34.2178 14.4592 33.2595 13.9265 32.5405 13.0175C31.8212 12.1085 31.4615 11.0642 31.4615 9.8845V5.6425C31.4615 4.62883 31.1117 3.7915 30.412 3.1305C29.7123 2.46917 28.8503 2.1385 27.826 2.1385H26.177C25.8543 2.1385 25.5955 2.03083 25.4005 1.8155C25.2052 1.60017 25.1075 1.34717 25.1075 1.0565C25.1075 0.7655 25.2143 0.516667 25.428 0.310001C25.6413 0.103334 25.891 0 26.177 0H28.3925C29.8158 0 31.0395 0.495833 32.0635 1.4875C33.0878 2.47917 33.6 3.6975 33.6 5.1425V9.3845C33.6 10.3988 33.9473 11.2408 34.642 11.9105C35.3367 12.5805 36.2008 12.9155 37.2345 12.9155C37.3092 12.9155 37.3887 12.9583 37.473 13.044C37.5577 13.1297 37.6 13.2265 37.6 13.3345V16.281C37.6 16.3893 37.5577 16.4753 37.473 16.539C37.3887 16.6027 37.3092 16.6345 37.2345 16.6345C36.2008 16.6345 35.3367 16.9778 34.642 17.6645C33.9473 18.3508 33.6 19.2012 33.6 20.2155V24.4575C33.6 25.9025 33.0878 27.1208 32.0635 28.1125C31.0395 29.1042 29.8158 29.6 28.3925 29.6H26.177ZM9.2575 29.6C7.80083 29.6 6.5605 29.1042 5.5365 28.1125C4.51217 27.1208 4 25.9025 4 24.4575V20.2155C4 19.2012 3.637 18.3508 2.911 17.6645C2.18533 16.9778 1.3035 16.6345 0.2655 16.6345C0.195833 16.6345 0.134167 16.6073 0.0805 16.553C0.0268334 16.4987 0 16.4362 0 16.3655V13.169C0 13.1317 0.0268334 13.08 0.0805 13.014C0.134167 12.9483 0.195833 12.9155 0.2655 12.9155C1.3035 12.9155 2.18533 12.5805 2.911 11.9105C3.637 11.2408 4 10.3988 4 9.3845V5.1425C4 3.6975 4.51217 2.47917 5.5365 1.4875C6.5605 0.495833 7.80083 0 9.2575 0H11.5115C11.8008 0 12.0513 0.106501 12.263 0.319501C12.475 0.532501 12.581 0.784333 12.581 1.075C12.581 1.366 12.475 1.616 12.263 1.825C12.0513 2.034 11.8008 2.1385 11.5115 2.1385H9.774C8.74967 2.1385 7.896 2.46917 7.213 3.1305C6.53 3.7915 6.1885 4.62883 6.1885 5.6425V9.8845C6.1885 11.0642 5.8205 12.1085 5.0845 13.0175C4.34883 13.9265 3.39883 14.4592 2.2345 14.6155V14.7345C3.39883 15.0322 4.34883 15.6443 5.0845 16.571C5.8205 17.4977 6.1885 18.5458 6.1885 19.7155V23.9575C6.1885 24.9712 6.53 25.8002 7.213 26.4445C7.896 27.0892 8.74967 27.4115 9.774 27.4115H11.5115C11.8008 27.4115 12.0513 27.518 12.263 27.731C12.475 27.944 12.581 28.1958 12.581 28.4865C12.581 28.8108 12.475 29.0775 12.263 29.2865C12.0513 29.4955 11.8008 29.6 11.5115 29.6H9.2575Z" fill="#01101A"/>
</svg>
