<svg width="17" height="18" viewBox="0 0 17 18" fill="none" xmlns="http://www.w3.org/2000/svg">
<path d="M8.50558 17.3333C7.35642 17.3333 6.27656 17.1146 5.266 16.6771C4.25531 16.2396 3.37149 15.6424 2.61454 14.8854C1.8576 14.1285 1.26038 13.2442 0.822876 12.2325C0.385376 11.2208 0.166626 10.1399 0.166626 8.98957C0.166626 7.8393 0.385376 6.75832 0.822876 5.74666C1.26038 4.73499 1.8576 3.85416 2.61454 3.10416C3.37149 2.35416 4.25579 1.76041 5.26746 1.32291C6.27913 0.885406 7.3601 0.666656 8.51038 0.666656C9.66065 0.666656 10.7416 0.885406 11.7533 1.32291C12.765 1.76041 13.6458 2.35416 14.3958 3.10416C15.1458 3.85416 15.7395 4.7361 16.177 5.74999C16.6145 6.76388 16.8333 7.84534 16.8333 8.99437C16.8333 10.1435 16.6145 11.2234 16.177 12.2339C15.7395 13.2446 15.1458 14.1272 14.3958 14.8817C13.6458 15.636 12.7638 16.2332 11.75 16.6733C10.7361 17.1133 9.65461 17.3333 8.50558 17.3333ZM8.51038 16.0833C10.4757 16.0833 12.1458 15.3924 13.5208 14.0104C14.8958 12.6285 15.5833 10.9549 15.5833 8.98957C15.5833 7.0243 14.8971 5.35416 13.5248 3.97916C12.1524 2.60416 10.4775 1.91666 8.49996 1.91666C6.54163 1.91666 4.87149 2.60284 3.48954 3.9752C2.1076 5.34756 1.41663 7.02249 1.41663 8.99999C1.41663 10.9583 2.1076 12.6285 3.48954 14.0104C4.87149 15.3924 6.5451 16.0833 8.51038 16.0833ZM6.68746 12.3333H10.2916C10.4861 12.3333 10.6284 12.2674 10.7187 12.1356C10.809 12.0038 10.8541 11.8405 10.8541 11.6458V10.75C10.8541 10.5729 10.7938 10.4244 10.6733 10.3046C10.5529 10.1849 10.4036 10.125 10.2254 10.125C10.0473 10.125 9.89927 10.1849 9.78121 10.3046C9.66315 10.4244 9.60413 10.5729 9.60413 10.75V11.0833H7.37496V6.91666H9.60413V7.27082C9.60413 7.44791 9.6644 7.59631 9.78496 7.71603C9.90538 7.83589 10.0547 7.89582 10.2329 7.89582C10.4109 7.89582 10.559 7.83589 10.677 7.71603C10.7951 7.59631 10.8541 7.44791 10.8541 7.27082V6.37499C10.8541 6.1743 10.809 6.0061 10.7187 5.87041C10.6284 5.73457 10.4861 5.66666 10.2916 5.66666H6.68746C6.49302 5.66666 6.35065 5.73457 6.26038 5.87041C6.1701 6.0061 6.12496 6.1743 6.12496 6.37499V11.6458C6.12496 11.8405 6.1701 12.0038 6.26038 12.1356C6.35065 12.2674 6.49302 12.3333 6.68746 12.3333Z" fill="#53575B"/>
</svg>
