<svg width="21" height="20" viewBox="0 0 21 20" fill="none" xmlns="http://www.w3.org/2000/svg">
<path d="M7.79998 0.833344V3.33334M12.8 0.833344V3.33334M7.79998 16.6667V19.1667M12.8 16.6667V19.1667M16.9666 7.50001H19.4666M16.9666 11.6667H19.4666M1.13332 7.50001H3.63332M1.13332 11.6667H3.63332M5.29998 3.33334H15.3C16.2205 3.33334 16.9666 4.07954 16.9666 5.00001V15C16.9666 15.9205 16.2205 16.6667 15.3 16.6667H5.29998C4.37951 16.6667 3.63332 15.9205 3.63332 15V5.00001C3.63332 4.07954 4.37951 3.33334 5.29998 3.33334ZM7.79998 7.50001H12.8V12.5H7.79998V7.50001Z" stroke="#01101A" stroke-width="2" stroke-linecap="round" stroke-linejoin="round"/>
</svg>
